<mxfile host="app.diagrams.net" modified="2021-12-13T06:28:16.676Z" agent="5.0 (Windows NT 10.0; Win64; x64) AppleWebKit/537.36 (KHTML, like Gecko) Chrome/96.0.4664.93 Safari/537.36" etag="7_SS5qu5A-eJ_h3YCLSU" version="15.9.1" type="github">
  <diagram id="6LzY-GwxLYfI5oQ5h1-i" name="第 1 页">
    <mxGraphModel dx="920" dy="595" grid="0" gridSize="10" guides="1" tooltips="1" connect="1" arrows="1" fold="1" page="0" pageScale="1" pageWidth="827" pageHeight="1169" background="#ffffff" math="1" shadow="0">
      <root>
        <mxCell id="0" />
        <mxCell id="1" parent="0" />
        <mxCell id="in8CJnlPPp7zi62RLzR5-53" value="" style="shape=cylinder3;whiteSpace=wrap;html=1;boundedLbl=1;backgroundOutline=1;size=15;fillColor=#fff2cc;strokeColor=#d6b656;" vertex="1" parent="1">
          <mxGeometry x="499" y="676" width="182" height="255" as="geometry" />
        </mxCell>
        <mxCell id="wbnTD-iwvaI9E5Lmj2qQ-2" value="$$R_1$$" style="shape=cylinder3;whiteSpace=wrap;html=1;boundedLbl=1;backgroundOutline=1;size=15;fillColor=#d5e8d4;strokeColor=#82b366;" parent="1" vertex="1">
          <mxGeometry x="499" y="145" width="60" height="80" as="geometry" />
        </mxCell>
        <mxCell id="wbnTD-iwvaI9E5Lmj2qQ-3" value="$$R_2$$" style="shape=cylinder3;whiteSpace=wrap;html=1;boundedLbl=1;backgroundOutline=1;size=15;fillColor=#dae8fc;strokeColor=#6c8ebf;" parent="1" vertex="1">
          <mxGeometry x="499" y="251" width="60" height="80" as="geometry" />
        </mxCell>
        <mxCell id="wbnTD-iwvaI9E5Lmj2qQ-4" value="真实环境" style="rounded=1;whiteSpace=wrap;html=1;fillColor=#dae8fc;strokeColor=#6c8ebf;" parent="1" vertex="1">
          <mxGeometry x="72" y="291" width="90" height="40" as="geometry" />
        </mxCell>
        <mxCell id="wbnTD-iwvaI9E5Lmj2qQ-5" value="仿真器环境" style="rounded=1;whiteSpace=wrap;html=1;fillColor=#d5e8d4;strokeColor=#82b366;" parent="1" vertex="1">
          <mxGeometry x="72" y="145" width="90" height="40" as="geometry" />
        </mxCell>
        <mxCell id="LDNhD_ikxuT9xY4Xif5G-1" style="edgeStyle=orthogonalEdgeStyle;rounded=0;orthogonalLoop=1;jettySize=auto;html=1;exitX=1;exitY=0.5;exitDx=0;exitDy=0;exitPerimeter=0;entryX=1;entryY=0.5;entryDx=0;entryDy=0;entryPerimeter=0;fontSize=14;strokeWidth=2;" parent="1" source="wbnTD-iwvaI9E5Lmj2qQ-6" target="wbnTD-iwvaI9E5Lmj2qQ-2" edge="1">
          <mxGeometry relative="1" as="geometry">
            <Array as="points">
              <mxPoint x="681" y="414" />
              <mxPoint x="681" y="185" />
            </Array>
          </mxGeometry>
        </mxCell>
        <mxCell id="LDNhD_ikxuT9xY4Xif5G-4" value="使用离线数据初始化" style="edgeLabel;html=1;align=center;verticalAlign=middle;resizable=0;points=[];fontSize=14;" parent="LDNhD_ikxuT9xY4Xif5G-1" vertex="1" connectable="0">
          <mxGeometry x="-0.4184" y="1" relative="1" as="geometry">
            <mxPoint x="1" as="offset" />
          </mxGeometry>
        </mxCell>
        <mxCell id="wbnTD-iwvaI9E5Lmj2qQ-6" value="$$离线数据D$$" style="shape=cylinder3;whiteSpace=wrap;html=1;boundedLbl=1;backgroundOutline=1;size=15;fillColor=#dae8fc;strokeColor=#6c8ebf;" parent="1" vertex="1">
          <mxGeometry x="305" y="374" width="100" height="80" as="geometry" />
        </mxCell>
        <mxCell id="LDNhD_ikxuT9xY4Xif5G-2" value="" style="endArrow=classic;html=1;rounded=0;fontSize=14;strokeWidth=2;entryX=1;entryY=0.5;entryDx=0;entryDy=0;entryPerimeter=0;" parent="1" target="wbnTD-iwvaI9E5Lmj2qQ-3" edge="1">
          <mxGeometry width="50" height="50" relative="1" as="geometry">
            <mxPoint x="683" y="291" as="sourcePoint" />
            <mxPoint x="563" y="301.5" as="targetPoint" />
          </mxGeometry>
        </mxCell>
        <mxCell id="pvRorkdOcFRVt22xa30s-7" value="$$Agent$$" style="text;html=1;align=center;verticalAlign=middle;resizable=0;points=[];autosize=1;strokeColor=none;fillColor=none;" parent="1" vertex="1">
          <mxGeometry x="324.6474358974359" y="139" width="68" height="18" as="geometry" />
        </mxCell>
        <mxCell id="LDNhD_ikxuT9xY4Xif5G-23" value="" style="endArrow=none;html=1;rounded=0;fontSize=14;strokeWidth=2;entryX=0;entryY=0.5;entryDx=0;entryDy=0;entryPerimeter=0;edgeStyle=orthogonalEdgeStyle;fillColor=#dae8fc;strokeColor=#6c8ebf;" parent="1" edge="1">
          <mxGeometry width="50" height="50" relative="1" as="geometry">
            <mxPoint x="470" y="207" as="sourcePoint" />
            <mxPoint x="500" y="291" as="targetPoint" />
            <Array as="points">
              <mxPoint x="470" y="291" />
            </Array>
          </mxGeometry>
        </mxCell>
        <mxCell id="LDNhD_ikxuT9xY4Xif5G-24" value="" style="endArrow=none;html=1;rounded=0;fontSize=14;strokeWidth=2;entryX=0;entryY=0;entryDx=0;entryDy=27.5;entryPerimeter=0;edgeStyle=orthogonalEdgeStyle;fillColor=#d5e8d4;strokeColor=#82b366;" parent="1" edge="1">
          <mxGeometry width="50" height="50" relative="1" as="geometry">
            <mxPoint x="470" y="208" as="sourcePoint" />
            <mxPoint x="500" y="172.5" as="targetPoint" />
            <Array as="points">
              <mxPoint x="470" y="173" />
            </Array>
          </mxGeometry>
        </mxCell>
        <mxCell id="pvRorkdOcFRVt22xa30s-8" value="" style="group" parent="1" vertex="1" connectable="0">
          <mxGeometry x="271" y="168.78" width="200.82" height="173.22" as="geometry" />
        </mxCell>
        <mxCell id="pvRorkdOcFRVt22xa30s-6" value="" style="rounded=1;whiteSpace=wrap;html=1;strokeColor=#d6b656;perimeterSpacing=0;fillColor=#fff2cc;" parent="pvRorkdOcFRVt22xa30s-8" vertex="1">
          <mxGeometry width="186" height="150.22" as="geometry" />
        </mxCell>
        <mxCell id="pvRorkdOcFRVt22xa30s-3" value="$$Actor1$$" style="rounded=1;whiteSpace=wrap;html=1;strokeColor=#3399FF;" parent="pvRorkdOcFRVt22xa30s-8" vertex="1">
          <mxGeometry x="11.001025641025642" y="28.766355140186917" width="71.31410256410257" height="28.766355140186917" as="geometry" />
        </mxCell>
        <mxCell id="pvRorkdOcFRVt22xa30s-4" value="$$Actor2$$" style="rounded=1;whiteSpace=wrap;html=1;strokeColor=#3399FF;" parent="pvRorkdOcFRVt22xa30s-8" vertex="1">
          <mxGeometry x="57.34294871794872" y="117.22224299065421" width="71.31410256410257" height="28.766355140186917" as="geometry" />
        </mxCell>
        <mxCell id="LDNhD_ikxuT9xY4Xif5G-8" value="$$Critic$$" style="rounded=1;whiteSpace=wrap;html=1;strokeColor=#3399FF;" parent="pvRorkdOcFRVt22xa30s-8" vertex="1">
          <mxGeometry x="98.16102564102565" y="28.76635514018691" width="71.31410256410257" height="28.766355140186917" as="geometry" />
        </mxCell>
        <mxCell id="LDNhD_ikxuT9xY4Xif5G-11" value="" style="endArrow=classic;startArrow=classic;html=1;rounded=0;fontSize=14;strokeWidth=2;edgeStyle=orthogonalEdgeStyle;entryX=0;entryY=0.5;entryDx=0;entryDy=0;exitX=1;exitY=0.5;exitDx=0;exitDy=0;fillColor=#dae8fc;strokeColor=#6c8ebf;" parent="1" source="wbnTD-iwvaI9E5Lmj2qQ-4" target="pvRorkdOcFRVt22xa30s-3" edge="1">
          <mxGeometry width="50" height="50" relative="1" as="geometry">
            <mxPoint x="324" y="295" as="sourcePoint" />
            <mxPoint x="374" y="245" as="targetPoint" />
          </mxGeometry>
        </mxCell>
        <mxCell id="LDNhD_ikxuT9xY4Xif5G-16" value="与真实环境交互" style="edgeLabel;html=1;align=center;verticalAlign=middle;resizable=0;points=[];fontSize=14;" parent="LDNhD_ikxuT9xY4Xif5G-11" vertex="1" connectable="0">
          <mxGeometry x="0.0954" y="2" relative="1" as="geometry">
            <mxPoint as="offset" />
          </mxGeometry>
        </mxCell>
        <mxCell id="LDNhD_ikxuT9xY4Xif5G-25" value="" style="endArrow=classic;html=1;rounded=0;fontSize=14;strokeWidth=2;" parent="1" target="LDNhD_ikxuT9xY4Xif5G-8" edge="1">
          <mxGeometry width="50" height="50" relative="1" as="geometry">
            <mxPoint x="472" y="210" as="sourcePoint" />
            <mxPoint x="374" y="245" as="targetPoint" />
          </mxGeometry>
        </mxCell>
        <mxCell id="LDNhD_ikxuT9xY4Xif5G-18" value="" style="endArrow=classic;startArrow=classic;html=1;rounded=0;fontSize=14;strokeWidth=2;entryX=0.5;entryY=1;entryDx=0;entryDy=0;entryPerimeter=0;edgeStyle=orthogonalEdgeStyle;exitX=0.5;exitY=1;exitDx=0;exitDy=0;fillColor=#dae8fc;strokeColor=#6c8ebf;" parent="1" source="pvRorkdOcFRVt22xa30s-3" target="wbnTD-iwvaI9E5Lmj2qQ-3" edge="1">
          <mxGeometry width="50" height="50" relative="1" as="geometry">
            <mxPoint x="324" y="295" as="sourcePoint" />
            <mxPoint x="374" y="245" as="targetPoint" />
            <Array as="points">
              <mxPoint x="318" y="355" />
              <mxPoint x="529" y="355" />
            </Array>
          </mxGeometry>
        </mxCell>
        <mxCell id="LDNhD_ikxuT9xY4Xif5G-26" value="真实环境中的转移" style="edgeLabel;html=1;align=center;verticalAlign=middle;resizable=0;points=[];fontSize=14;" parent="LDNhD_ikxuT9xY4Xif5G-18" vertex="1" connectable="0">
          <mxGeometry x="0.1099" y="-1" relative="1" as="geometry">
            <mxPoint as="offset" />
          </mxGeometry>
        </mxCell>
        <mxCell id="LDNhD_ikxuT9xY4Xif5G-31" style="edgeStyle=orthogonalEdgeStyle;rounded=0;orthogonalLoop=1;jettySize=auto;html=1;exitX=0;exitY=0;exitDx=0;exitDy=52.5;exitPerimeter=0;fontSize=14;strokeWidth=2;fillColor=#dae8fc;strokeColor=#6c8ebf;" parent="1" source="wbnTD-iwvaI9E5Lmj2qQ-3" edge="1">
          <mxGeometry relative="1" as="geometry">
            <mxPoint x="401" y="303" as="targetPoint" />
          </mxGeometry>
        </mxCell>
        <mxCell id="LDNhD_ikxuT9xY4Xif5G-10" style="edgeStyle=orthogonalEdgeStyle;rounded=0;orthogonalLoop=1;jettySize=auto;html=1;exitX=0.5;exitY=0;exitDx=0;exitDy=0;entryX=0.5;entryY=0;entryDx=0;entryDy=0;entryPerimeter=0;fontSize=14;strokeWidth=2;fillColor=#d5e8d4;strokeColor=#82b366;" parent="1" source="pvRorkdOcFRVt22xa30s-3" target="wbnTD-iwvaI9E5Lmj2qQ-2" edge="1">
          <mxGeometry relative="1" as="geometry" />
        </mxCell>
        <mxCell id="LDNhD_ikxuT9xY4Xif5G-27" value="仿真器中的转移" style="edgeLabel;html=1;align=center;verticalAlign=middle;resizable=0;points=[];fontSize=14;" parent="LDNhD_ikxuT9xY4Xif5G-10" vertex="1" connectable="0">
          <mxGeometry x="-0.1124" y="4" relative="1" as="geometry">
            <mxPoint as="offset" />
          </mxGeometry>
        </mxCell>
        <mxCell id="LDNhD_ikxuT9xY4Xif5G-14" value="" style="endArrow=classic;startArrow=classic;html=1;rounded=0;fontSize=14;strokeWidth=2;entryX=1;entryY=0.5;entryDx=0;entryDy=0;edgeStyle=orthogonalEdgeStyle;exitX=0.5;exitY=0;exitDx=0;exitDy=0;fillColor=#d5e8d4;strokeColor=#82b366;" parent="1" source="pvRorkdOcFRVt22xa30s-3" target="wbnTD-iwvaI9E5Lmj2qQ-5" edge="1">
          <mxGeometry width="50" height="50" relative="1" as="geometry">
            <mxPoint x="324" y="195" as="sourcePoint" />
            <mxPoint x="158" y="356" as="targetPoint" />
          </mxGeometry>
        </mxCell>
        <mxCell id="LDNhD_ikxuT9xY4Xif5G-19" value="与仿真器交互" style="edgeLabel;html=1;align=center;verticalAlign=middle;resizable=0;points=[];fontSize=14;" parent="LDNhD_ikxuT9xY4Xif5G-14" vertex="1" connectable="0">
          <mxGeometry x="0.3944" y="1" relative="1" as="geometry">
            <mxPoint as="offset" />
          </mxGeometry>
        </mxCell>
        <mxCell id="in8CJnlPPp7zi62RLzR5-27" value="$$R_1$$" style="shape=cylinder3;whiteSpace=wrap;html=1;boundedLbl=1;backgroundOutline=1;size=15;fillColor=#d5e8d4;strokeColor=#82b366;" vertex="1" parent="1">
          <mxGeometry x="527" y="717" width="129" height="79" as="geometry" />
        </mxCell>
        <mxCell id="in8CJnlPPp7zi62RLzR5-28" value="$$R_2$$" style="shape=cylinder3;whiteSpace=wrap;html=1;boundedLbl=1;backgroundOutline=1;size=15;fillColor=#dae8fc;strokeColor=#6c8ebf;" vertex="1" parent="1">
          <mxGeometry x="533" y="813.5" width="129" height="79" as="geometry" />
        </mxCell>
        <mxCell id="in8CJnlPPp7zi62RLzR5-29" value="真实环境" style="rounded=1;whiteSpace=wrap;html=1;fillColor=#dae8fc;strokeColor=#6c8ebf;" vertex="1" parent="1">
          <mxGeometry x="111" y="835" width="90" height="40" as="geometry" />
        </mxCell>
        <mxCell id="in8CJnlPPp7zi62RLzR5-30" value="仿真器环境" style="rounded=1;whiteSpace=wrap;html=1;fillColor=#d5e8d4;strokeColor=#82b366;" vertex="1" parent="1">
          <mxGeometry x="111" y="736.5" width="90" height="40" as="geometry" />
        </mxCell>
        <mxCell id="in8CJnlPPp7zi62RLzR5-33" value="&lt;font style=&quot;font-size: 13px&quot;&gt;$$离线数据D$$&lt;/font&gt;" style="shape=cylinder3;whiteSpace=wrap;html=1;boundedLbl=1;backgroundOutline=1;size=15;fillColor=#dae8fc;strokeColor=#6c8ebf;" vertex="1" parent="1">
          <mxGeometry x="540" y="1006" width="100" height="80" as="geometry" />
        </mxCell>
        <mxCell id="in8CJnlPPp7zi62RLzR5-35" value="&lt;font style=&quot;font-size: 18px&quot;&gt;$$Agent$$&lt;/font&gt;" style="text;html=1;align=center;verticalAlign=middle;resizable=0;points=[];autosize=1;strokeColor=#9673a6;fillColor=#e1d5e7;strokeWidth=2;" vertex="1" parent="1">
          <mxGeometry x="299.99743589743593" y="793.5" width="97" height="20" as="geometry" />
        </mxCell>
        <mxCell id="in8CJnlPPp7zi62RLzR5-60" value="" style="endArrow=none;html=1;rounded=0;edgeStyle=orthogonalEdgeStyle;exitX=1;exitY=0.5;exitDx=0;exitDy=0;exitPerimeter=0;strokeWidth=2;" edge="1" parent="1" source="in8CJnlPPp7zi62RLzR5-33">
          <mxGeometry width="50" height="50" relative="1" as="geometry">
            <mxPoint x="730" y="1056" as="sourcePoint" />
            <mxPoint x="816" y="754" as="targetPoint" />
          </mxGeometry>
        </mxCell>
        <mxCell id="in8CJnlPPp7zi62RLzR5-63" value="&lt;font style=&quot;font-size: 18px&quot;&gt;初始化&lt;/font&gt;" style="edgeLabel;html=1;align=center;verticalAlign=middle;resizable=0;points=[];" vertex="1" connectable="0" parent="in8CJnlPPp7zi62RLzR5-60">
          <mxGeometry x="0.2115" relative="1" as="geometry">
            <mxPoint as="offset" />
          </mxGeometry>
        </mxCell>
        <mxCell id="in8CJnlPPp7zi62RLzR5-61" value="" style="endArrow=classic;html=1;rounded=0;entryX=1;entryY=0.5;entryDx=0;entryDy=0;entryPerimeter=0;strokeWidth=2;" edge="1" parent="1">
          <mxGeometry width="50" height="50" relative="1" as="geometry">
            <mxPoint x="816" y="754" as="sourcePoint" />
            <mxPoint x="656.0000000000002" y="754.5000000000002" as="targetPoint" />
            <Array as="points" />
          </mxGeometry>
        </mxCell>
        <mxCell id="in8CJnlPPp7zi62RLzR5-62" value="" style="endArrow=classic;html=1;rounded=0;entryX=1;entryY=0.5;entryDx=0;entryDy=0;entryPerimeter=0;strokeWidth=2;" edge="1" parent="1">
          <mxGeometry width="50" height="50" relative="1" as="geometry">
            <mxPoint x="815" y="865" as="sourcePoint" />
            <mxPoint x="662.0000000000002" y="864.5000000000005" as="targetPoint" />
            <Array as="points" />
          </mxGeometry>
        </mxCell>
        <mxCell id="in8CJnlPPp7zi62RLzR5-66" value="" style="endArrow=classic;startArrow=classic;html=1;rounded=0;fontSize=18;strokeWidth=2;entryX=0.015;entryY=-0.038;entryDx=0;entryDy=0;entryPerimeter=0;exitX=1;exitY=0.5;exitDx=0;exitDy=0;exitPerimeter=0;fillColor=#d5e8d4;strokeColor=#82b366;" edge="1" parent="1" source="in8CJnlPPp7zi62RLzR5-30" target="in8CJnlPPp7zi62RLzR5-35">
          <mxGeometry width="50" height="50" relative="1" as="geometry">
            <mxPoint x="245" y="742" as="sourcePoint" />
            <mxPoint x="295" y="692" as="targetPoint" />
          </mxGeometry>
        </mxCell>
        <mxCell id="in8CJnlPPp7zi62RLzR5-68" value="" style="endArrow=classic;startArrow=classic;html=1;rounded=0;fontSize=18;strokeWidth=2;entryX=-0.004;entryY=0.962;entryDx=0;entryDy=0;entryPerimeter=0;fillColor=#dae8fc;strokeColor=#6c8ebf;exitX=1;exitY=0.5;exitDx=0;exitDy=0;" edge="1" parent="1" source="in8CJnlPPp7zi62RLzR5-29" target="in8CJnlPPp7zi62RLzR5-35">
          <mxGeometry width="50" height="50" relative="1" as="geometry">
            <mxPoint x="226" y="881" as="sourcePoint" />
            <mxPoint x="307.8684358974358" y="817.9399999999998" as="targetPoint" />
          </mxGeometry>
        </mxCell>
        <mxCell id="in8CJnlPPp7zi62RLzR5-69" value="" style="endArrow=classic;startArrow=classic;html=1;rounded=0;fontSize=18;strokeWidth=2;entryX=0;entryY=0;entryDx=0;entryDy=27.249999999999996;entryPerimeter=0;fillColor=#d5e8d4;strokeColor=#82b366;exitX=0.99;exitY=0;exitDx=0;exitDy=0;exitPerimeter=0;" edge="1" parent="1" source="in8CJnlPPp7zi62RLzR5-35" target="in8CJnlPPp7zi62RLzR5-27">
          <mxGeometry width="50" height="50" relative="1" as="geometry">
            <mxPoint x="367" y="796" as="sourcePoint" />
            <mxPoint x="453.36043589743576" y="732.9399999999998" as="targetPoint" />
          </mxGeometry>
        </mxCell>
        <mxCell id="in8CJnlPPp7zi62RLzR5-70" value="" style="endArrow=classic;startArrow=classic;html=1;rounded=0;fontSize=18;strokeWidth=2;exitX=0.973;exitY=1.05;exitDx=0;exitDy=0;exitPerimeter=0;fillColor=#dae8fc;strokeColor=#6c8ebf;entryX=0;entryY=0;entryDx=0;entryDy=51.749999999999986;entryPerimeter=0;" edge="1" parent="1" source="in8CJnlPPp7zi62RLzR5-35" target="in8CJnlPPp7zi62RLzR5-28">
          <mxGeometry width="50" height="50" relative="1" as="geometry">
            <mxPoint x="379" y="826.9999999999998" as="sourcePoint" />
            <mxPoint x="488.2784358974361" y="875.9200000000001" as="targetPoint" />
          </mxGeometry>
        </mxCell>
      </root>
    </mxGraphModel>
  </diagram>
</mxfile>
